<svg width="86" height="86" viewBox="0 0 86 86" fill="none" xmlns="http://www.w3.org/2000/svg">
<path d="M85.9993 19.9636C85.9993 17.4191 83.937 15.3566 81.3923 15.3566V9.21394C83.9368 9.21394 85.9993 7.15162 85.9993 4.60689C85.9993 2.06216 83.9368 0 81.3923 0C78.8477 0 76.7852 2.06232 76.7852 4.60706H70.6426C70.6426 2.06232 68.5803 0 66.0357 0C63.4911 0 61.4286 2.06232 61.4286 4.60706H55.286C55.286 2.06232 53.2235 0 50.679 0C48.1344 0 46.0719 2.06232 46.0719 4.60706H39.9293C39.9294 2.06232 37.8669 0 35.3224 0C32.7778 0 30.7153 2.06232 30.7153 4.60706H24.5727C24.5727 2.06232 22.5104 0 19.9658 0C17.4212 0 15.3588 2.06232 15.3588 4.60706H9.21613C9.21613 2.06232 7.1538 0 4.60907 0C2.06434 0 0.00218213 2.06232 0.00218213 4.60706C0.00218213 7.15179 2.06451 9.21394 4.60907 9.21394V15.3566C2.06451 15.3566 0.00201416 17.4189 0.00201416 19.9636C0.00201416 22.5084 2.06451 24.5705 4.60907 24.5705V30.7131C2.06451 30.7131 0.00201416 32.7755 0.00201416 35.3202C0.00201416 37.8649 2.06434 39.9273 4.60907 39.9273V46.0699C2.06451 46.0699 0.00201416 48.1322 0.00201416 50.6769C0.00201416 53.2217 2.06434 55.284 4.60907 55.284V61.4266C2.06451 61.4266 0.00201416 63.489 0.00201416 66.0337C0.00201416 68.5782 2.06434 70.6407 4.60907 70.6407V76.7834C2.06451 76.7834 0.00201416 78.8457 0.00201416 81.3904C0.00201416 83.935 2.06434 85.9975 4.60907 85.9975C7.1538 85.9975 9.21613 83.9352 9.21613 81.3904H15.3588C15.3588 83.935 17.4211 85.9975 19.9658 85.9975C22.5105 85.9975 24.5729 83.9352 24.5729 81.3904H30.7155C30.7155 83.935 32.7778 85.9975 35.3226 85.9975C37.8673 85.9975 39.9296 83.9352 39.9296 81.3904H46.0722C46.0722 83.935 48.1346 85.9975 50.6793 85.9975C53.224 85.9975 55.2863 83.9352 55.2863 81.3904H61.429C61.429 83.935 63.4913 85.9975 66.036 85.9975C68.5806 85.9975 70.6431 83.9352 70.6431 81.3904H76.7857C76.7857 83.935 78.848 85.9975 81.3928 85.9975C83.9373 85.9975 85.9998 83.9352 85.9998 81.3904C85.9998 78.8459 83.9375 76.7834 81.3928 76.7834V70.6407C83.9373 70.6407 85.9998 68.5784 85.9998 66.0337C85.9998 63.4891 83.9375 61.4266 81.3928 61.4266V55.284C83.9373 55.284 85.9998 53.2217 85.9998 50.6769C85.9998 48.1324 83.9375 46.0699 81.3928 46.0699V39.9273C83.9373 39.9273 85.9998 37.8649 85.9998 35.3202C85.9998 32.7755 83.9375 30.7131 81.3928 30.7131V24.5705C83.9368 24.5705 85.9993 22.5082 85.9993 19.9636Z" fill="#91CECE"/>
<path d="M72.1767 13.821H13.8215V72.1761H72.1767V13.821Z" fill="#EA3836"/>
<path d="M46.0721 39.9273L39.9294 30.7133L32.2511 26.1063L29.1797 35.3202L26.1084 39.9273L29.1797 41.463V44.5343C28.332 47.0789 29.7065 49.8277 32.2495 50.6769C32.2495 50.6769 32.2495 50.6769 32.2511 50.6769L39.9294 49.1412L41.4652 56.8196L30.0292 62.5906C29.5484 62.9101 29.4179 63.5581 29.7374 64.0387C29.9079 64.2952 30.1827 64.4642 30.4899 64.4979C37.7628 65.516 45.1462 65.4194 52.3901 64.2122L59.8932 62.9622L53.7506 55.2838L52.2149 46.0699L50.6791 44.5341L46.0721 39.9273Z" fill="#FFD33F"/>
<path d="M59.8931 49.1412L61.4286 46.0699L59.8931 39.9273L58.3573 32.2489L53.7503 26.1063L46.0721 21.4992L38.3937 19.9636L32.2511 21.4992L30.7153 23.0349L32.2511 26.1063L39.9294 30.7133L46.0721 39.9273L50.679 44.5341L52.2147 46.0699L55.286 49.1412H59.8931Z" fill="#383856"/>
<path d="M85.9993 35.3202C85.9963 33.9919 85.4158 32.7296 84.4083 31.8634C80.8533 37.418 76.7562 42.6084 72.1783 47.3552V72.1762H33.8681C23.1031 76.2165 11.8222 78.7211 0.358437 79.6148C-0.622838 81.9629 0.484414 84.661 2.83245 85.6422C5.18049 86.6235 7.87858 85.5163 8.85986 83.1682C9.09485 82.6047 9.21612 82.0012 9.21612 81.3899H15.3588C15.3588 83.9345 17.4211 85.997 19.9658 85.997C22.5105 85.997 24.5729 83.9347 24.5729 81.3899H30.7155C30.7155 83.9345 32.7778 85.997 35.3226 85.997C37.8673 85.997 39.9296 83.9347 39.9296 81.3899H46.0722C46.0722 83.9345 48.1346 85.997 50.6793 85.997C53.2239 85.997 55.2863 83.9347 55.2863 81.3899H61.429C61.429 83.9345 63.4913 85.997 66.036 85.997C68.5806 85.997 70.6431 83.9347 70.6431 81.3899H76.7857C76.7857 83.9345 78.848 85.997 81.3928 85.997C83.9373 85.997 85.9998 83.9347 85.9998 81.3899C85.9998 78.8454 83.9375 76.7829 81.3928 76.7829V70.6402C83.9373 70.6402 85.9998 68.5779 85.9998 66.0332C85.9998 63.4886 83.9375 61.4261 81.3928 61.4261V55.2835C83.9373 55.2835 85.9998 53.2212 85.9998 50.6764C85.9998 48.1319 83.9375 46.0694 81.3928 46.0694V39.9268C83.9368 39.9273 85.9993 37.8648 85.9993 35.3202Z" fill="#83B2B7"/>
<path d="M57.4268 59.8802L59.8931 62.9622L52.3929 64.2123C51.6066 64.3428 50.8158 64.455 50.0264 64.5608C44.8543 67.5293 39.4502 70.0754 33.8681 72.1762H72.1783V47.3552C67.6818 52.0023 62.7417 56.1976 57.4268 59.8802Z" fill="#D62121"/>
<path d="M59.8931 62.9622L57.4268 59.8801C54.9697 61.5817 52.5019 63.1357 50.0264 64.5607C50.8157 64.4548 51.6067 64.3427 52.3929 64.2122L59.8931 62.9622Z" fill="#FFAC3E"/>
</svg>
