<svg width="86" height="86" viewBox="0 0 86 86" fill="none" xmlns="http://www.w3.org/2000/svg">
<g clip-path="url(#clip0)">
<path d="M12.0103 34.3097L20.7586 45.9657V51.8967C20.7586 55.7978 21.666 59.6441 23.4113 63.133L23.7242 63.7586V86.0001H29.6552V72.6553L32.6207 59.3105C35.9614 60.4241 39.4874 60.8704 43 60.6272L50.3308 59.0718L57.8276 56.345L62.6822 57.9627C63.3051 59.4825 64.1427 60.9045 65.1689 62.1856L71.1726 69.6898L69.6897 86.0001H75.6207L78.4216 66.3921C78.5298 65.6328 78.4898 64.8588 78.3045 64.1146L77.0516 59.1029C76.1013 55.3011 75.6207 51.3985 75.6207 47.4796V47.4485C75.6207 42.5346 71.638 38.5519 66.7241 38.5519H34.1034L29.655 34.1036L25.2067 29.6553L16.3101 20.7586H10.3791L0.920805 30.2171C0.33073 30.8074 0 31.6066 0 32.4414C0.00151172 34.1777 1.40859 35.5847 3.14488 35.5862H8.89646C10.062 35.5862 11.18 35.1267 12.0103 34.3097Z" fill="#874D1B"/>
<path d="M16.3103 20.7586H17.5825C21.5148 20.7586 25.2869 22.3214 28.0671 25.1016L31.1379 28.1724L35.5862 32.6208L41.5172 38.5517H34.1034L16.3103 20.7586Z" fill="#6B3713"/>
<path d="M57.2775 37.1298L44.4828 38.5518L41.5173 51.8966L43.909 65.0516C44.2828 67.1408 46.2784 68.5302 48.3678 68.1565C50.3354 67.8051 51.704 66.0035 51.5157 64.0137L50.414 51.8966L55.8157 42.1743C56.674 40.6231 57.1737 38.8987 57.2775 37.1298Z" fill="#EA3836"/>
<path d="M84.5172 31.1378C82.0603 31.1378 80.0689 33.1291 80.0689 35.5861C80.0689 38.8615 77.4133 41.5171 74.1379 41.5171H73.3417C74.8096 43.1437 75.6222 45.2566 75.6207 47.4481H77.1035C82.0175 47.4481 86.0002 43.4654 86.0002 38.5515V31.1377H84.5172V31.1378Z" fill="#6B3713"/>
<path d="M10.3793 20.7586C10.3793 18.1015 12.0785 15.7439 14.5992 14.9032L14.8275 14.8276L16.3103 20.7586H10.3793Z" fill="#6B3713"/>
<path d="M24.6672 30.1C23.091 30.7671 22.3556 32.5866 23.0228 34.1628C23.6722 35.6975 25.4204 36.4433 26.9773 35.8502L29.9132 34.75L27.5571 28.8605L24.6672 30.1Z" fill="#FFD33F"/>
<path d="M41.7233 60.6537C42.1489 60.6433 42.5759 60.6537 43 60.627L43.1008 60.6048L42.6738 58.2607C42.3535 59.0464 42.0362 59.8441 41.7233 60.6537Z" fill="#874D1B"/>
<path d="M78.3045 64.1145L77.0516 59.1028C76.1013 55.301 75.6207 51.3984 75.6207 47.4795V47.4485C75.6207 42.5345 71.638 38.5518 66.7241 38.5518H57.0995C56.8725 39.821 56.4382 41.0458 55.8153 42.1742L50.4136 51.8966L51.0423 58.8122L57.8274 56.3449L62.6821 57.9626C63.3049 59.4824 64.1426 60.9044 65.1687 62.1855L71.1724 69.6897L69.6897 86H75.6207L78.4216 66.392C78.5299 65.6327 78.4898 64.8587 78.3045 64.1145Z" fill="#874D1B"/>
<path d="M53.9339 37.5019C53.6907 37.8474 53.4477 38.1957 53.206 38.5517C49.0141 44.7332 45.4853 51.339 42.6783 58.2604L43.1053 60.6046L43.9134 65.0529C44.2871 67.1421 46.2828 68.5316 48.3721 68.1578C50.3397 67.8064 51.7083 66.0048 51.5201 64.0151L51.047 58.8105L50.414 51.8964L55.8157 42.1741C56.4385 41.0457 56.8729 39.821 57.0998 38.5517C57.1873 38.0817 57.2466 37.6072 57.2777 37.1296L53.9339 37.5019Z" fill="#D62121"/>
<path d="M30.1949 34.6432L29.6552 34.1033L29.9132 34.7483L30.1949 34.6432Z" fill="#91CECE"/>
<path d="M57.1455 34.4638L54.8621 20.7588L54.1993 19.4332C53.6966 18.4279 52.6706 17.7933 51.5466 17.7933H45.9655L32.6207 26.6899L27.5571 28.8592L29.9132 34.7487L35.5862 32.6209L43 28.1724L44.4828 38.5517L57.2775 37.1297C57.3338 36.2386 57.2893 35.3445 57.1455 34.4638Z" fill="#91CECE"/>
<path d="M57.2775 37.1298C57.3338 36.2387 57.2908 35.3431 57.1455 34.4608L56.972 33.4125C55.9652 34.6906 54.9525 36.0533 53.9337 37.499L57.2775 37.1298Z" fill="#83B2B7"/>
<path d="M57.8276 38.5517H57.0996C56.8727 39.8209 56.4384 41.0457 55.8155 42.1741L50.4138 51.8965L51.0425 58.8121L56.2944 56.9023C57.7772 47.38 60.2015 41.753 62.8793 38.5517H57.8276Z" fill="#6B3713"/>
<path d="M41.5172 6.67239C41.5083 10.3482 44.4798 13.3344 48.154 13.3448C50.6866 13.3507 53.0025 11.9199 54.131 9.65115C50.7785 6.31932 46.2441 4.44966 41.5172 4.44815V6.67239V6.67239Z" fill="#FFD33F"/>
<path d="M48.1897 0H41.5173V4.44832C46.2443 4.44983 50.7786 6.31949 54.1311 9.65132C54.6056 8.729 54.8562 7.70893 54.8621 6.67239C54.8621 2.98783 51.8743 0 48.1897 0Z" fill="#383856"/>
<path d="M46.7069 11.8621C45.3012 11.8591 43.9341 11.4099 42.8013 10.578C44.9335 13.5524 49.0749 14.236 52.0493 12.1038C52.9345 11.4692 53.6492 10.627 54.1311 9.6513C53.6388 9.16789 53.12 8.7142 52.5757 8.2916C51.4354 10.4801 49.1742 11.8547 46.7069 11.8621Z" fill="#FFAC3E"/>
<path d="M52.0952 1.28412C53.5794 3.2858 53.793 5.95634 52.6483 8.16849C52.6261 8.21149 52.5979 8.25012 52.5756 8.29161C53.1198 8.71422 53.6386 9.1679 54.131 9.65131C55.6316 6.74512 54.7627 3.17763 52.0952 1.28412Z" fill="#202033"/>
</g>
<defs>
<clipPath id="clip0">
<rect width="86" height="86" fill="white"/>
</clipPath>
</defs>
</svg>
