<svg width="24" height="24" viewBox="0 0 24 24" fill="none" xmlns="http://www.w3.org/2000/svg">
<g clip-path="url(#clip0)">
<path d="M18.5017 2.50301C15.4651 2.49888 13 4.95718 12.9959 7.99378C12.9918 11.0304 15.4501 13.4954 18.4867 13.4995C20.2796 13.502 21.9611 12.63 22.9923 11.1633C22.8997 16.3399 18.6806 20.49 13.5032 20.4973C13.2272 20.4973 13.0034 20.7211 13.0034 20.9972C13.0034 21.2733 13.2272 21.4971 13.5032 21.4971C19.2976 21.4904 23.9933 16.7948 23.9999 11.0003V8.00127C23.9967 4.96603 21.537 2.50633 18.5017 2.50301Z" fill="#FFD33F"/>
<path d="M5.50577 2.50301C2.46917 2.49888 0.00412889 4.95718 5.18047e-06 7.99382C-0.00411853 11.0305 2.45418 13.4954 5.49082 13.4996C7.28375 13.502 8.96528 12.6301 9.9964 11.1633C9.9038 16.3399 5.68478 20.4901 0.507362 20.4974C0.231308 20.4974 0.00750284 20.7212 0.00750284 20.9972C0.00750284 21.2733 0.231308 21.4971 0.507362 21.4971C6.30179 21.4905 10.9975 16.7948 11.0041 11.0004V8.00132C11.0008 4.96603 8.54101 2.50633 5.50577 2.50301Z" fill="#FFD33F"/>
</g>
<defs>
<clipPath id="clip0">
<rect width="24" height="24" fill="white"/>
</clipPath>
</defs>
</svg>
